<svg width="10" height="12" fill="none" xmlns="http://www.w3.org/2000/svg"><path d="M5.016 0c-.547 0-.97.547-.97 1.326 0 .381.141.994.407 1.856.266.862.406 1.658.406 2.37v.216c-.687-.464-1.156-.845-1.375-1.11-.453-.548-1.64-2.106-2.562-2.106A.897.897 0 0 0 0 3.464c0 .282.11.53.328.78.438.48 1.406.712 2.547.977.578.133 1.188.381 1.86.779-.688.398-1.313.663-1.907.796-.578.132-1.094.265-1.531.414C.39 7.525 0 8.006 0 8.57a.85.85 0 0 0 .875.878c.313 0 .61-.1.906-.315.282-.2.797-.73 1.532-1.592.765-.779.656-.712 1.546-1.309 0 .796-.14 1.64-.421 2.52-.282.878-.422 1.524-.422 1.922 0 .796.421 1.326.968 1.326.563 0 .97-.563.97-1.326 0-.58-.391-1.823-.641-2.619-.125-.398-.172-.944-.172-1.607v-.216c.625.398 1.109.812 1.453 1.227.687.828 1.656 1.989 2.484 1.989.547 0 .922-.382.922-.879 0-.282-.11-.547-.313-.796-.406-.497-1.343-.712-2.515-.977-.594-.133-1.234-.398-1.906-.796.656-.398 1.28-.663 1.843-.779a17.975 17.975 0 0 0 1.547-.398C9.578 4.558 10 4.011 10 3.464a.913.913 0 0 0-.906-.912c-.813 0-1.578.912-2.36 1.84-.39.464-.906.928-1.593 1.376 0-.862.14-1.69.421-2.553.282-.845.422-1.475.422-1.889C5.984.58 5.594 0 5.016 0Z" fill="#1E2EB8"/></svg>