<svg width="10" height="12" viewBox="0 0 10 12" fill="none" xmlns="http://www.w3.org/2000/svg">
<path d="M5.01562 -5.17926e-07C4.46875 -4.70117e-07 4.04687 0.54696 4.04687 1.32597C4.04687 1.70718 4.1875 2.32044 4.45312 3.18232C4.71875 4.0442 4.85937 4.83978 4.85937 5.55249L4.85937 5.76796C4.17187 5.30387 3.70313 4.92265 3.48438 4.65746C3.03125 4.1105 1.84375 2.55249 0.921875 2.55249C0.374999 2.55249 1.63971e-07 2.96685 2.07441e-07 3.46409C2.32074e-07 3.74586 0.109376 3.99448 0.328125 4.24309C0.765625 4.72376 1.73437 4.9558 2.875 5.22099C3.45312 5.35359 4.0625 5.60221 4.73437 6C4.04688 6.39779 3.42188 6.66298 2.82812 6.79558C2.25 6.92818 1.73438 7.06077 1.29688 7.20995C0.390627 7.52486 6.04466e-07 8.00553 6.53732e-07 8.56906C6.98651e-07 9.08287 0.375 9.44751 0.875 9.44751C1.1875 9.44751 1.48438 9.34807 1.78125 9.1326C2.0625 8.9337 2.57813 8.40332 3.3125 7.54144C4.07813 6.76243 3.96875 6.82873 4.85937 6.23204C4.85938 7.02762 4.71875 7.87293 4.4375 8.75138C4.15625 9.62983 4.01563 10.2762 4.01563 10.674C4.01563 11.4696 4.4375 12 4.98438 12C5.54688 12 5.95313 11.4365 5.95313 10.674C5.95313 10.0939 5.5625 8.85083 5.3125 8.05525C5.1875 7.65746 5.14063 7.1105 5.14062 6.44751L5.14062 6.23204C5.76563 6.62983 6.25 7.0442 6.59375 7.45856C7.28125 8.28729 8.25 9.44751 9.07812 9.44751C9.625 9.44751 10 9.0663 10 8.56906C10 8.28729 9.89062 8.0221 9.6875 7.77348C9.28125 7.27624 8.34375 7.06077 7.17187 6.79558C6.57813 6.66298 5.9375 6.39779 5.26563 6C5.92187 5.60221 6.54687 5.33702 7.10937 5.22099C7.6875 5.10497 8.20312 4.9558 8.65625 4.8232C9.57812 4.55801 10 4.01105 10 3.46409C10 2.96685 9.59375 2.55249 9.09375 2.55249C8.28125 2.55249 7.51562 3.46409 6.73437 4.39226C6.34375 4.85635 5.82812 5.32044 5.14062 5.76796C5.14062 4.90608 5.28125 4.07735 5.5625 3.21547C5.84375 2.37017 5.98437 1.74033 5.98437 1.32597C5.98437 0.580109 5.59375 -5.68468e-07 5.01562 -5.17926e-07Z" fill="#1E2EB8"/>
</svg>
